<?xml version="1.0" standalone="no"?>
<!DOCTYPE svg PUBLIC "-//W3C//DTD SVG 20010904//EN"
 "http://www.w3.org/TR/2001/REC-SVG-20010904/DTD/svg10.dtd">
<svg version="1.0" xmlns="http://www.w3.org/2000/svg"
 width="758.000000pt" height="720.000000pt" viewBox="0 0 758.000000 720.000000"
 preserveAspectRatio="xMidYMid meet">

<g transform="translate(0.000000,720.000000) scale(0.100000,-0.100000)"
fill="#000000" stroke="none">
<path d="M3115 6180 c-152 -21 -226 -34 -287 -50 -23 -6 -70 -19 -103 -27 -63
-17 -156 -46 -197 -62 -25 -9 -100 -38 -133 -51 -50 -19 -287 -138 -345 -173
-390 -235 -725 -568 -957 -947 -119 -196 -233 -451 -288 -645 -10 -33 -23 -80
-30 -105 -14 -49 -35 -152 -62 -300 -25 -141 -25 -632 1 -780 41 -244 76 -378
148 -575 45 -124 142 -328 200 -423 21 -34 38 -64 38 -67 0 -2 21 -34 46 -72
242 -355 546 -644 904 -860 56 -34 286 -150 345 -173 356 -145 689 -210 1067
-210 221 0 450 26 643 73 131 32 296 83 360 112 17 7 41 18 55 23 175 74 274
125 439 228 222 140 492 382 660 594 l83 105 287 6 c285 7 374 16 494 53 50
16 133 55 170 81 57 39 126 121 160 187 74 149 72 127 72 758 0 517 -2 571
-18 635 -47 176 -146 308 -282 374 -159 77 -207 86 -475 86 -262 0 -308 -8
-455 -75 -172 -79 -289 -251 -319 -472 -9 -61 -10 -402 -1 -453 10 -60 36
-166 45 -184 4 -9 19 -38 31 -64 48 -99 158 -196 267 -238 234 -89 587 -76
754 28 21 13 40 23 43 23 14 0 4 -170 -13 -218 -54 -153 -163 -202 -452 -202
-80 0 -162 -5 -182 -10 -47 -13 -88 -58 -176 -190 -183 -276 -491 -569 -797
-760 -81 -50 -356 -190 -374 -190 -7 0 -25 -7 -39 -15 -64 -35 -326 -112 -477
-139 -211 -38 -295 -46 -504 -46 -248 0 -488 30 -681 86 -30 8 -68 19 -85 23
-37 10 -123 39 -150 50 -11 5 -40 16 -65 26 -125 48 -360 166 -401 201 -8 8
-19 14 -22 14 -8 0 -152 98 -212 144 -364 279 -672 678 -839 1086 -15 36 -31
74 -36 85 -44 103 -105 328 -140 520 -39 222 -39 628 0 850 35 192 96 417 140
520 5 11 21 49 36 85 164 403 482 814 839 1086 57 44 205 144 212 144 4 0 14
6 22 14 41 35 260 145 401 201 25 9 54 21 65 26 40 17 171 57 295 89 252 66
678 91 940 54 204 -28 462 -90 590 -142 14 -5 45 -18 70 -27 138 -55 360 -166
401 -201 8 -8 18 -14 21 -14 8 0 161 -103 213 -143 177 -137 375 -336 511
-512 65 -86 197 -298 252 -406 l27 -54 58 -3 c36 -2 57 1 57 8 0 23 -123 252
-198 365 -275 422 -654 755 -1107 974 -161 78 -155 76 -240 106 -235 86 -409
128 -665 160 -161 21 -487 18 -655 -5z m3174 -2539 c83 -26 124 -60 157 -128
23 -49 28 -78 36 -188 11 -174 1 -345 -24 -410 -48 -124 -134 -164 -354 -165
-168 0 -251 28 -309 105 -50 64 -69 190 -62 405 9 253 46 329 188 379 77 28
282 29 368 2z"/>
<path d="M2550 4583 c-41 -7 -104 -18 -140 -24 -36 -5 -75 -12 -88 -15 l-23
-5 3 -807 c4 -830 5 -847 45 -972 71 -223 229 -353 493 -405 69 -14 125 -16
290 -13 197 4 244 10 350 45 194 63 319 191 376 383 57 191 56 590 0 781 -48
160 -148 285 -279 348 -142 68 -186 76 -407 76 -212 0 -275 -12 -385 -70 -26
-15 -54 -24 -61 -21 -11 4 -14 71 -14 361 l0 355 -42 -1 c-24 -1 -77 -8 -118
-16z m719 -942 c136 -42 192 -125 211 -308 21 -199 6 -421 -36 -508 -32 -69
-96 -126 -166 -148 -76 -24 -284 -24 -354 0 -97 33 -141 72 -176 158 -30 72
-38 143 -38 343 1 267 18 334 102 406 63 54 139 75 280 75 87 1 131 -4 177
-18z"/>
<path d="M4490 4370 c-191 -28 -277 -43 -287 -52 -10 -8 -13 -164 -13 -716 0
-609 2 -720 16 -807 34 -205 109 -303 288 -374 66 -27 200 -43 386 -48 158 -4
198 -3 206 8 11 13 64 266 64 300 0 15 -23 17 -192 21 -169 4 -199 7 -240 25
-59 27 -91 76 -107 164 -14 84 -15 695 -1 704 6 4 111 6 235 5 123 0 236 2
250 6 15 4 27 15 29 28 9 49 39 194 48 238 5 26 7 52 3 58 -4 7 -96 10 -282
10 -152 -1 -280 3 -284 7 -5 5 -10 103 -11 218 l-3 210 -25 1 c-14 1 -50 -2
-80 -6z"/>
</g>
</svg>
